# xmcd CD database file
#
# Track frame offsets:
#	150
#	22010
#	40307
#
# Disc length: 686 seconds
#
# Revision: 0
# Processed by: cddbd v1.5.1PL0 Copyright (c) Steve Scherf et al.
# Submitted via: CDex 1.51
#
DISCID=1f02ac03
DTITLE=coca - テレパシー
DYEAR=1998
DGENRE=Pop
TTITLE0=テレパシー
TTITLE1=Oui, oui
TTITLE2=空とエンピツ
EXTD=YEAR: 1998.10/01
EXTT0=
EXTT1=
EXTT2=
PLAYORDER=
